<svg version="1.1" id="Layer_1" xmlns="http://www.w3.org/2000/svg" xmlns:xlink="http://www.w3.org/1999/xlink" x="0px" y="0px"
	 width="100%" viewBox="0 0 1536 1024" enable-background="new 0 0 1536 1024" xml:space="preserve">
<path fill="#131218" opacity="1.000000" stroke="none" 
	d="
M1005.000000,1025.000000 
	C670.000000,1025.000000 335.500000,1025.000000 1.000000,1025.000000 
	C1.000000,683.666687 1.000000,342.333344 1.000000,1.000000 
	C513.000000,1.000000 1025.000000,1.000000 1537.000000,1.000000 
	C1537.000000,342.333344 1537.000000,683.666687 1537.000000,1025.000000 
	C1359.833374,1025.000000 1182.666626,1025.000000 1005.000000,1025.000000 
M847.016113,412.222015 
	C833.662476,398.075470 820.293518,383.943298 806.969421,369.768982 
	C804.589661,367.237396 802.603638,368.474426 800.444885,370.039185 
	C795.429321,373.674530 790.486145,377.430908 785.283936,380.781494 
	C780.261475,384.016327 778.775208,390.163635 782.457947,393.611542 
	C791.315002,401.903656 800.123413,410.248230 808.895508,418.630310 
	C812.118652,421.710144 815.184143,424.955017 818.771484,428.682922 
	C824.662537,435.430634 830.759521,442.011169 836.402222,448.960541 
	C848.441772,463.788025 860.558838,478.572449 871.998169,493.857971 
	C876.819519,500.300415 880.653870,507.694031 883.778625,515.141296 
	C887.911682,524.991821 885.474609,533.152710 877.388916,539.996521 
	C877.076111,540.147461 876.882080,540.392456 876.243469,541.034058 
	C875.137939,541.676880 874.032471,542.319702 872.484558,542.924622 
	C872.167847,542.974243 871.935669,543.141357 871.297363,543.616638 
	C871.140991,543.696228 870.984619,543.775818 870.125061,543.796448 
	C869.066650,544.219727 868.008240,544.642944 866.271973,545.179321 
	C865.608154,545.352783 864.944336,545.526184 863.493774,545.485718 
	C854.234070,546.348145 844.985474,547.773132 835.712402,547.955505 
	C816.575439,548.331787 797.425476,548.038879 778.280823,548.042297 
	C776.459656,548.042664 774.638489,548.191589 772.817322,548.271545 
	C782.202454,550.396484 791.508850,551.756287 800.864502,552.462891 
	C814.606079,553.500671 828.382812,554.071533 843.008606,554.874084 
	C845.321289,554.879211 847.633972,554.884338 850.866394,555.108826 
	C855.943054,554.958801 861.019775,554.808777 866.844299,554.595032 
	C868.877258,554.417358 870.910156,554.239624 873.387634,554.384460 
	C874.631836,554.142334 875.876099,553.900146 877.959351,553.562439 
	C879.642029,553.373413 881.324707,553.184448 883.546875,553.090149 
	C883.718201,553.027161 883.889587,552.964111 884.856812,552.833252 
	C889.654358,551.517029 894.596008,550.578186 899.221252,548.811035 
	C911.218018,544.227539 917.459473,534.732117 917.826904,521.912415 
	C918.157593,510.373322 913.485901,500.550812 907.697144,491.114044 
	C890.354187,462.841797 869.511353,437.265686 847.016113,412.222015 
M684.175110,404.306335 
	C675.920410,423.166168 667.707886,442.044617 659.377075,460.870789 
	C657.619629,464.842346 658.649292,466.697205 662.749695,468.217529 
	C667.154663,469.850800 671.140930,472.594452 675.373291,474.727783 
	C676.293518,475.191650 677.477783,475.171936 678.549866,475.284515 
	C679.995667,475.436340 681.610901,475.125244 682.875122,475.664795 
	C689.946350,478.682281 689.897400,478.710663 692.733459,471.714203 
	C697.507935,459.936035 702.382996,448.198700 707.178589,436.429077 
	C709.425110,430.915649 711.584778,425.366852 714.090149,419.207153 
	C720.541077,405.681366 726.619690,391.961761 733.535583,378.678070 
	C742.515015,361.430634 751.410950,344.071014 764.738586,329.527679 
	C773.951843,319.474121 785.209290,318.183716 795.753418,326.772552 
	C799.711975,329.997070 803.481567,333.781433 806.322021,337.994965 
	C819.992432,358.273529 833.281128,378.809021 846.797729,399.192017 
	C848.978516,402.480682 851.625305,405.460236 854.056702,408.582672 
	C848.239380,398.303741 842.717468,387.764038 837.205139,377.219238 
	C829.726440,362.912689 822.742859,348.317657 814.613770,334.391022 
	C808.939209,324.669586 802.634644,314.982422 794.964355,306.829651 
	C779.431885,290.320129 759.103882,290.728546 742.933044,306.664612 
	C740.091675,309.464752 737.342529,312.406311 734.894165,315.550018 
	C713.862122,342.555115 698.682312,372.895721 684.175110,404.306335 
M762.880615,544.145264 
	C785.452332,541.423096 807.797180,537.559875 830.575256,532.128113 
	C828.748291,528.541870 827.325256,526.439392 826.564819,524.119690 
	C824.662537,518.316895 822.216858,512.503662 821.593262,506.527222 
	C821.048767,501.309601 820.347961,499.269135 815.081787,500.327698 
	C798.010010,503.759308 780.992065,507.458679 763.520020,511.098541 
	C763.520020,511.098541 763.090332,511.169525 762.326477,511.032806 
	C761.838318,511.178162 761.350220,511.323517 760.104309,511.580750 
	C733.886475,515.015564 707.704590,518.768250 681.434570,521.741760 
	C669.568665,523.084778 657.483826,523.509399 645.785583,519.736328 
	C635.942627,516.561584 630.726685,509.262604 631.401428,499.017059 
	C631.649353,495.252686 632.078674,491.177856 633.712646,487.883057 
	C640.797424,473.596741 648.369995,459.552612 655.737427,445.405975 
	C657.871094,441.308960 659.912354,437.163849 662.172058,432.399078 
	C663.274475,430.682220 664.376892,428.965332 665.479309,427.248474 
	C665.384766,427.198120 665.290222,427.147736 665.195679,427.097351 
	C664.143738,429.097595 663.091797,431.097839 661.490845,433.522461 
	C660.129456,434.625000 658.436340,435.491119 657.456482,436.865631 
	C643.355530,456.646851 629.068542,476.343292 618.482971,498.320618 
	C615.630981,504.241608 613.307617,510.676819 612.199707,517.126465 
	C609.557739,532.507019 617.617615,545.460449 632.610352,549.825745 
	C640.197571,552.034912 648.241699,553.615295 656.110046,553.755676 
	C689.994324,554.360107 723.451172,549.450317 757.533813,544.947510 
	C757.730530,544.875000 757.927185,544.802490 758.787842,544.690613 
	C759.856750,544.462341 760.925720,544.234131 762.880615,544.145264 
M712.433350,712.938293 
	C724.301575,708.542175 728.646057,702.395203 728.726013,689.612061 
	C728.808350,676.446289 728.786438,663.279907 728.808472,650.113770 
	C728.812805,647.512695 728.809143,644.911682 728.809143,642.231812 
	C725.233154,642.231812 722.253113,642.231812 719.165771,642.231812 
	C718.899658,644.178955 718.641846,646.065613 718.359436,648.132019 
	C704.838318,638.541321 688.507629,639.070251 678.976135,649.161011 
	C670.850525,657.763489 670.190369,674.687317 677.901367,683.830261 
	C682.979736,689.851685 689.698975,692.826538 697.623962,693.104187 
	C705.519592,693.380859 712.526245,691.381714 718.147583,684.440430 
	C718.147583,686.876587 718.100708,688.207214 718.155518,689.533630 
	C718.429871,696.178223 716.853455,702.121521 710.091125,704.694153 
	C702.342102,707.642090 693.800354,708.598877 687.372681,702.766785 
	C683.253601,699.029297 679.772217,698.741455 675.224792,699.423584 
	C675.215454,705.011841 677.078430,707.790405 682.855286,710.610046 
	C692.116699,715.130554 701.803711,715.135315 712.433350,712.938293 
M627.918396,683.719788 
	C629.204712,686.766296 630.490967,689.812805 631.785583,692.879150 
	C635.659424,692.879150 639.422363,692.879150 643.314941,692.879150 
	C632.714233,669.752258 622.237915,646.896729 611.780090,624.081421 
	C609.815674,624.201233 608.093933,624.639832 606.511292,624.341370 
	C601.353088,623.368713 599.255432,626.187378 597.480835,630.443237 
	C593.137268,640.860474 588.437256,651.129272 583.870789,661.453430 
	C579.280212,671.832092 574.677673,682.205566 570.025940,692.704346 
	C580.785522,693.930603 580.788879,693.932068 584.714600,684.928406 
	C585.643738,682.797424 586.756897,680.715454 587.400513,678.499146 
	C588.157959,675.890747 589.675903,675.448608 592.182434,675.517029 
	C600.163025,675.735107 608.187561,676.129028 616.125977,675.533447 
	C622.346497,675.066772 626.199463,676.787170 627.918396,683.719788 
M855.913513,642.214783 
	C850.160889,655.137451 844.408264,668.060059 838.458984,681.424377 
	C829.711243,661.904114 821.236938,642.993958 812.920105,624.435120 
	C808.949341,624.435120 805.420105,624.435120 801.639771,624.435120 
	C810.644714,644.329468 819.542114,663.806946 828.276489,683.357178 
	C832.770264,693.415649 832.639221,693.476868 843.629272,692.994690 
	C843.936768,692.981201 844.235840,692.772583 844.322998,692.738770 
	C854.530334,669.908081 864.666931,647.235779 874.871399,624.411743 
	C863.824341,623.751526 863.838379,623.757446 859.824585,633.297974 
	C858.664490,636.055603 857.397827,638.768494 855.913513,642.214783 
M782.785950,643.672852 
	C778.745239,642.796021 774.719055,641.258057 770.661072,641.169067 
	C759.430786,640.922791 749.302185,644.072815 743.619385,654.628662 
	C738.416138,664.293640 738.950989,674.409485 745.323669,683.401978 
	C752.628479,693.709656 763.610901,695.381409 775.217163,693.937988 
	C787.144714,692.454590 796.157104,683.981201 797.908508,673.258179 
	C800.119446,659.721680 795.327271,649.988220 782.785950,643.672852 
M918.533447,642.326111 
	C914.914429,642.326111 911.295349,642.326111 907.494202,642.326111 
	C907.494202,645.116943 907.494202,647.471069 907.494202,650.555664 
	C918.319702,650.555664 928.786743,650.555664 940.075928,650.555664 
	C938.979858,652.082947 938.596191,652.783569 938.061218,653.338379 
	C928.708679,663.036804 919.502686,672.885925 909.878784,682.307983 
	C906.624451,685.493958 905.461243,688.609985 906.597961,692.930542 
	C923.014526,692.930542 939.422180,692.930542 955.847656,692.930542 
	C955.847656,690.216248 955.847656,687.795471 955.847656,684.968811 
	C944.006775,684.968811 932.456665,684.968811 920.304504,684.968811 
	C931.031311,673.855347 941.070984,663.067444 951.595947,652.775879 
	C954.919495,649.526123 955.879395,646.540649 954.584900,642.322937 
	C942.813599,642.322937 931.167908,642.322937 918.533447,642.326111 
M660.549805,622.320984 
	C657.351807,622.051270 654.153809,621.781555 650.640259,621.485291 
	C650.640259,645.768921 650.640259,669.267090 650.640259,692.795532 
	C654.224915,692.795532 657.461548,692.795532 660.674683,692.795532 
	C660.674683,669.396301 660.674683,646.292297 660.549805,622.320984 
M883.561523,687.182251 
	C883.561523,689.101807 883.561523,691.021301 883.561523,692.840027 
	C887.335022,692.840027 890.438843,692.840027 893.844177,692.840027 
	C893.844177,678.651550 893.844116,664.704651 893.844116,650.757751 
	C893.844116,648.141296 893.844177,645.524780 893.844177,642.579407 
	C890.204346,642.579407 887.015076,642.579407 883.562927,642.579407 
	C883.562927,657.352417 883.562927,671.804749 883.561523,687.182251 
M893.428284,632.135498 
	C893.713806,628.833618 893.999268,625.531738 894.287476,622.199036 
	C890.116272,622.199036 886.690735,622.199036 883.137634,622.199036 
	C883.137634,625.682190 883.137634,628.923157 883.137634,632.293701 
	C886.431335,632.293701 889.525269,632.293701 893.428284,632.135498 
z"/>
<path fill="#3771E6" opacity="1.000000" stroke="none" 
	d="
M763.090332,511.169495 
	C763.090332,511.169525 763.520020,511.098541 763.731812,511.490601 
	C763.294006,522.590393 762.644287,533.298157 761.994629,544.005920 
	C760.925720,544.234131 759.856750,544.462341 758.322144,544.569580 
	C757.541382,544.584656 757.226440,544.720703 756.911438,544.856812 
	C723.451172,549.450317 689.994324,554.360107 656.110046,553.755676 
	C648.241699,553.615295 640.197571,552.034912 632.610352,549.825745 
	C617.617615,545.460449 609.557739,532.507019 612.199707,517.126465 
	C613.307617,510.676819 615.630981,504.241608 618.482971,498.320618 
	C629.068542,476.343292 643.355530,456.646851 657.456482,436.865631 
	C658.436340,435.491119 660.129456,434.625000 661.759521,433.290222 
	C662.028198,433.057983 661.995972,433.040771 661.995972,433.040771 
	C659.912354,437.163849 657.871094,441.308960 655.737427,445.405975 
	C648.369995,459.552612 640.797424,473.596741 633.712646,487.883057 
	C632.078674,491.177856 631.649353,495.252686 631.401428,499.017059 
	C630.726685,509.262604 635.942627,516.561584 645.785583,519.736328 
	C657.483826,523.509399 669.568665,523.084778 681.434570,521.741760 
	C707.704590,518.768250 733.886475,515.015564 760.690552,511.688568 
	C761.881348,511.587433 762.485840,511.378448 763.090332,511.169495 
z"/>
<path fill="#3771E6" opacity="1.000000" stroke="none" 
	d="
M684.729919,403.927399 
	C698.682312,372.895721 713.862122,342.555115 734.894165,315.550018 
	C737.342529,312.406311 740.091675,309.464752 742.933044,306.664612 
	C759.103882,290.728546 779.431885,290.320129 794.964355,306.829651 
	C802.634644,314.982422 808.939209,324.669586 814.613770,334.391022 
	C822.742859,348.317657 829.726440,362.912689 837.205139,377.219238 
	C842.717468,387.764038 848.239380,398.303741 854.056702,408.582672 
	C851.625305,405.460236 848.978516,402.480682 846.797729,399.192017 
	C833.281128,378.809021 819.992432,358.273529 806.322021,337.994965 
	C803.481567,333.781433 799.711975,329.997070 795.753418,326.772552 
	C785.209290,318.183716 773.951843,319.474121 764.738586,329.527679 
	C751.410950,344.071014 742.515015,361.430634 733.535583,378.678070 
	C726.619690,391.961761 720.541077,405.681366 713.633667,419.378967 
	C706.306274,415.976624 699.403381,412.462067 692.580322,408.798767 
	C689.872314,407.344849 687.341431,405.561035 684.729919,403.927399 
z"/>
<path fill="#3771E6" opacity="1.000000" stroke="none" 
	d="
M883.007385,552.995483 
	C881.324707,553.184448 879.642029,553.373413 877.204102,553.435181 
	C875.280334,553.559265 874.111694,553.810608 872.943115,554.061951 
	C870.910156,554.239624 868.877258,554.417358 866.113525,554.419800 
	C860.237366,554.459473 855.091980,554.674500 849.946655,554.889465 
	C847.633972,554.884338 845.321289,554.879211 842.531372,554.487671 
	C842.554688,553.350708 842.905090,552.147095 843.580444,551.923035 
	C847.951843,550.473083 852.394836,549.239014 856.812866,547.929321 
	C859.303589,547.190979 861.791382,546.443176 864.280518,545.699646 
	C864.944336,545.526184 865.608154,545.352783 866.831482,545.302979 
	C868.536743,544.902954 869.682495,544.379211 870.828247,543.855469 
	C870.984619,543.775818 871.140991,543.696228 871.769775,543.590332 
	C872.588867,543.498596 872.817139,543.298035 872.926941,542.962524 
	C874.032471,542.319702 875.137939,541.676880 876.774292,540.857666 
	C877.489990,540.418762 877.674866,540.156250 877.859741,539.893738 
	C885.474609,533.152710 887.911682,524.991821 883.778625,515.141296 
	C880.653870,507.694031 876.819519,500.300415 871.998169,493.857971 
	C860.558838,478.572449 848.441772,463.788025 836.402222,448.960541 
	C830.759521,442.011169 824.662537,435.430634 818.909546,428.277039 
	C820.742554,426.356110 822.232361,424.472015 824.170532,423.394348 
	C830.287781,419.993011 836.542236,416.831329 842.819275,413.730255 
	C844.083008,413.105957 845.679382,413.155029 847.122375,412.893616 
	C869.511353,437.265686 890.354187,462.841797 907.697144,491.114044 
	C913.485901,500.550812 918.157593,510.373322 917.826904,521.912415 
	C917.459473,534.732117 911.218018,544.227539 899.221252,548.811035 
	C894.596008,550.578186 889.654358,551.517029 884.344299,552.742432 
	C883.557007,552.766235 883.282227,552.880859 883.007385,552.995483 
z"/>
<path fill="#2F4187" opacity="1.000000" stroke="none" 
	d="
M684.452515,404.116882 
	C687.341431,405.561035 689.872314,407.344849 692.580322,408.798767 
	C699.403381,412.462067 706.306274,415.976624 713.480469,419.692413 
	C711.584778,425.366852 709.425110,430.915649 707.178589,436.429077 
	C702.382996,448.198700 697.507935,459.936035 692.733459,471.714203 
	C689.897400,478.710663 689.946350,478.682281 682.875122,475.664795 
	C681.610901,475.125244 679.995667,475.436340 678.549866,475.284515 
	C677.477783,475.171936 676.293518,475.191650 675.373291,474.727783 
	C671.140930,472.594452 667.154663,469.850800 662.749695,468.217529 
	C658.649292,466.697205 657.619629,464.842346 659.377075,460.870789 
	C667.707886,442.044617 675.920410,423.166168 684.452515,404.116882 
z"/>
<path fill="#2F4187" opacity="1.000000" stroke="none" 
	d="
M762.437622,544.075562 
	C762.644287,533.298157 763.294006,522.590393 763.948547,511.468811 
	C780.992065,507.458679 798.010010,503.759308 815.081787,500.327698 
	C820.347961,499.269135 821.048767,501.309601 821.593262,506.527222 
	C822.216858,512.503662 824.662537,518.316895 826.564819,524.119690 
	C827.325256,526.439392 828.748291,528.541870 830.575256,532.128113 
	C807.797180,537.559875 785.452332,541.423096 762.437622,544.075562 
z"/>
<path fill="#F6F6F6" opacity="1.000000" stroke="none" 
	d="
M712.042114,713.024780 
	C701.803711,715.135315 692.116699,715.130554 682.855286,710.610046 
	C677.078430,707.790405 675.215454,705.011841 675.224792,699.423584 
	C679.772217,698.741455 683.253601,699.029297 687.372681,702.766785 
	C693.800354,708.598877 702.342102,707.642090 710.091125,704.694153 
	C716.853455,702.121521 718.429871,696.178223 718.155518,689.533630 
	C718.100708,688.207214 718.147583,686.876587 718.147583,684.440430 
	C712.526245,691.381714 705.519592,693.380859 697.623962,693.104187 
	C689.698975,692.826538 682.979736,689.851685 677.901367,683.830261 
	C670.190369,674.687317 670.850525,657.763489 678.976135,649.161011 
	C688.507629,639.070251 704.838318,638.541321 718.359436,648.132019 
	C718.641846,646.065613 718.899658,644.178955 719.165771,642.231812 
	C722.253113,642.231812 725.233154,642.231812 728.809143,642.231812 
	C728.809143,644.911682 728.812805,647.512695 728.808472,650.113770 
	C728.786438,663.279907 728.808350,676.446289 728.726013,689.612061 
	C728.646057,702.395203 724.301575,708.542175 712.042114,713.024780 
M717.914307,661.224182 
	C716.101074,658.344482 714.915344,654.585876 712.352478,652.756042 
	C705.665100,647.981323 698.177429,647.526001 690.750488,651.520569 
	C683.786743,655.265930 683.071655,661.950989 683.264099,668.724548 
	C683.493469,676.802124 687.876831,682.435974 694.775635,684.405579 
	C703.137756,686.792908 712.386353,684.395081 715.787537,677.351379 
	C717.921021,672.932800 717.375000,667.220459 717.914307,661.224182 
z"/>
<path fill="#2F4187" opacity="1.000000" stroke="none" 
	d="
M847.069214,412.557800 
	C845.679382,413.155029 844.083008,413.105957 842.819275,413.730255 
	C836.542236,416.831329 830.287781,419.993011 824.170532,423.394348 
	C822.232361,424.472015 820.742554,426.356110 818.684570,427.997864 
	C815.184143,424.955017 812.118652,421.710144 808.895508,418.630310 
	C800.123413,410.248230 791.315002,401.903656 782.457947,393.611542 
	C778.775208,390.163635 780.261475,384.016327 785.283936,380.781494 
	C790.486145,377.430908 795.429321,373.674530 800.444885,370.039185 
	C802.603638,368.474426 804.589661,367.237396 806.969421,369.768982 
	C820.293518,383.943298 833.662476,398.075470 847.069214,412.557800 
z"/>
<path fill="#F6F6F6" opacity="1.000000" stroke="none" 
	d="
M627.770996,683.360474 
	C626.199463,676.787170 622.346497,675.066772 616.125977,675.533447 
	C608.187561,676.129028 600.163025,675.735107 592.182434,675.517029 
	C589.675903,675.448608 588.157959,675.890747 587.400513,678.499146 
	C586.756897,680.715454 585.643738,682.797424 584.714600,684.928406 
	C580.788879,693.932068 580.785522,693.930603 570.025940,692.704346 
	C574.677673,682.205566 579.280212,671.832092 583.870789,661.453430 
	C588.437256,651.129272 593.137268,640.860474 597.480835,630.443237 
	C599.255432,626.187378 601.353088,623.368713 606.511292,624.341370 
	C608.093933,624.639832 609.815674,624.201233 611.780090,624.081421 
	C622.237915,646.896729 632.714233,669.752258 643.314941,692.879150 
	C639.422363,692.879150 635.659424,692.879150 631.785583,692.879150 
	C630.490967,689.812805 629.204712,686.766296 627.770996,683.360474 
M618.974976,663.687439 
	C614.777161,654.280945 610.579285,644.874451 606.105896,634.850525 
	C601.286682,646.056213 596.753906,656.595886 592.196289,667.193359 
	C601.810791,667.193359 610.877625,667.193359 620.299805,667.193359 
	C619.804749,665.950134 619.506531,665.201355 618.974976,663.687439 
z"/>
<path fill="#F6F6F6" opacity="1.000000" stroke="none" 
	d="
M856.046753,641.858337 
	C857.397827,638.768494 858.664490,636.055603 859.824585,633.297974 
	C863.838379,623.757446 863.824341,623.751526 874.871399,624.411743 
	C864.666931,647.235779 854.530334,669.908081 844.322998,692.738770 
	C844.235840,692.772583 843.936768,692.981201 843.629272,692.994690 
	C832.639221,693.476868 832.770264,693.415649 828.276489,683.357178 
	C819.542114,663.806946 810.644714,644.329468 801.639771,624.435120 
	C805.420105,624.435120 808.949341,624.435120 812.920105,624.435120 
	C821.236938,642.993958 829.711243,661.904114 838.458984,681.424377 
	C844.408264,668.060059 850.160889,655.137451 856.046753,641.858337 
z"/>
<path fill="#F6F6F6" opacity="1.000000" stroke="none" 
	d="
M783.136658,643.820007 
	C795.327271,649.988220 800.119446,659.721680 797.908508,673.258179 
	C796.157104,683.981201 787.144714,692.454590 775.217163,693.937988 
	C763.610901,695.381409 752.628479,693.709656 745.323669,683.401978 
	C738.950989,674.409485 738.416138,664.293640 743.619385,654.628662 
	C749.302185,644.072815 759.430786,640.922791 770.661072,641.169067 
	C774.719055,641.258057 778.745239,642.796021 783.136658,643.820007 
M778.425720,684.296753 
	C784.988831,680.980957 787.287109,675.140076 787.680481,668.306702 
	C788.314087,657.301208 781.460144,649.674805 770.581726,649.097961 
	C759.436707,648.507080 751.504211,655.512817 750.973145,666.415771 
	C750.356140,679.081116 757.698120,686.560669 770.405090,686.010742 
	C772.860474,685.904480 775.286804,685.127319 778.425720,684.296753 
z"/>
<path fill="#F6F6F6" opacity="1.000000" stroke="none" 
	d="
M919.027832,642.324524 
	C931.167908,642.322937 942.813599,642.322937 954.584900,642.322937 
	C955.879395,646.540649 954.919495,649.526123 951.595947,652.775879 
	C941.070984,663.067444 931.031311,673.855347 920.304504,684.968811 
	C932.456665,684.968811 944.006775,684.968811 955.847656,684.968811 
	C955.847656,687.795471 955.847656,690.216248 955.847656,692.930542 
	C939.422180,692.930542 923.014526,692.930542 906.597961,692.930542 
	C905.461243,688.609985 906.624451,685.493958 909.878784,682.307983 
	C919.502686,672.885925 928.708679,663.036804 938.061218,653.338379 
	C938.596191,652.783569 938.979858,652.082947 940.075928,650.555664 
	C928.786743,650.555664 918.319702,650.555664 907.494202,650.555664 
	C907.494202,647.471069 907.494202,645.116943 907.494202,642.326111 
	C911.295349,642.326111 914.914429,642.326111 919.027832,642.324524 
z"/>
<path fill="#F6F6F6" opacity="1.000000" stroke="none" 
	d="
M660.612244,622.754639 
	C660.674683,646.292297 660.674683,669.396301 660.674683,692.795532 
	C657.461548,692.795532 654.224915,692.795532 650.640259,692.795532 
	C650.640259,669.267090 650.640259,645.768921 650.640259,621.485291 
	C654.153809,621.781555 657.351807,622.051270 660.612244,622.754639 
z"/>
<path fill="#F6F6F6" opacity="1.000000" stroke="none" 
	d="
M883.562256,686.719666 
	C883.562927,671.804749 883.562927,657.352417 883.562927,642.579407 
	C887.015076,642.579407 890.204346,642.579407 893.844177,642.579407 
	C893.844177,645.524780 893.844116,648.141296 893.844116,650.757751 
	C893.844116,664.704651 893.844177,678.651550 893.844177,692.840027 
	C890.438843,692.840027 887.335022,692.840027 883.561523,692.840027 
	C883.561523,691.021301 883.561523,689.101807 883.562256,686.719666 
z"/>
<path fill="#2F4187" opacity="1.000000" stroke="none" 
	d="
M863.887146,545.592651 
	C861.791382,546.443176 859.303589,547.190979 856.812866,547.929321 
	C852.394836,549.239014 847.951843,550.473083 843.580444,551.923035 
	C842.905090,552.147095 842.554688,553.350708 842.099365,554.471313 
	C828.382812,554.071533 814.606079,553.500671 800.864502,552.462891 
	C791.508850,551.756287 782.202454,550.396484 772.817322,548.271545 
	C774.638489,548.191589 776.459656,548.042664 778.280823,548.042297 
	C797.425476,548.038879 816.575439,548.331787 835.712402,547.955505 
	C844.985474,547.773132 854.234070,546.348145 863.887146,545.592651 
z"/>
<path fill="#F6F6F6" opacity="1.000000" stroke="none" 
	d="
M893.023743,632.214600 
	C889.525269,632.293701 886.431335,632.293701 883.137634,632.293701 
	C883.137634,628.923157 883.137634,625.682190 883.137634,622.199036 
	C886.690735,622.199036 890.116272,622.199036 894.287476,622.199036 
	C893.999268,625.531738 893.713806,628.833618 893.023743,632.214600 
z"/>
<path fill="#3771E6" opacity="1.000000" stroke="none" 
	d="
M662.034058,433.078033 
	C663.091797,431.097839 664.143738,429.097595 665.195679,427.097351 
	C665.290222,427.147736 665.384766,427.198120 665.479309,427.248474 
	C664.376892,428.965332 663.274475,430.682220 662.083984,432.719910 
	C661.995972,433.040771 662.028198,433.057983 662.034058,433.078033 
z"/>
<path fill="#2F4187" opacity="1.000000" stroke="none" 
	d="
M850.406494,554.999146 
	C855.091980,554.674500 860.237366,554.459473 865.739563,554.451660 
	C861.019775,554.808777 855.943054,554.958801 850.406494,554.999146 
z"/>
<path fill="#2F4187" opacity="1.000000" stroke="none" 
	d="
M873.165405,554.223206 
	C874.111694,553.810608 875.280334,553.559265 876.784607,553.482971 
	C875.876099,553.900146 874.631836,554.142334 873.165405,554.223206 
z"/>
<path fill="#2F4187" opacity="1.000000" stroke="none" 
	d="
M870.476685,543.825928 
	C869.682495,544.379211 868.536743,544.902954 867.170410,545.246460 
	C868.008240,544.642944 869.066650,544.219727 870.476685,543.825928 
z"/>
<path fill="#2F4187" opacity="1.000000" stroke="none" 
	d="
M762.708374,511.101135 
	C762.485840,511.378448 761.881348,511.587433 761.069458,511.632629 
	C761.350220,511.323517 761.838318,511.178162 762.708374,511.101135 
z"/>
<path fill="#2F4187" opacity="1.000000" stroke="none" 
	d="
M883.277100,553.042847 
	C883.282227,552.880859 883.557007,552.766235 883.946350,552.776367 
	C883.889587,552.964111 883.718201,553.027161 883.277100,553.042847 
z"/>
<path fill="#2F4187" opacity="1.000000" stroke="none" 
	d="
M757.222656,544.902161 
	C757.226440,544.720703 757.541382,544.584656 757.990112,544.589294 
	C757.927185,544.802490 757.730530,544.875000 757.222656,544.902161 
z"/>
<path fill="#2F4187" opacity="1.000000" stroke="none" 
	d="
M872.705750,542.943604 
	C872.817139,543.298035 872.588867,543.498596 872.015137,543.494995 
	C871.935669,543.141357 872.167847,542.974243 872.705750,542.943604 
z"/>
<path fill="#2F4187" opacity="1.000000" stroke="none" 
	d="
M877.624329,539.945129 
	C877.674866,540.156250 877.489990,540.418762 877.055969,540.706421 
	C876.882080,540.392456 877.076111,540.147461 877.624329,539.945129 
z"/>
<path fill="#131218" opacity="1.000000" stroke="none" 
	d="
M717.972778,661.656372 
	C717.375000,667.220459 717.921021,672.932800 715.787537,677.351379 
	C712.386353,684.395081 703.137756,686.792908 694.775635,684.405579 
	C687.876831,682.435974 683.493469,676.802124 683.264099,668.724548 
	C683.071655,661.950989 683.786743,655.265930 690.750488,651.520569 
	C698.177429,647.526001 705.665100,647.981323 712.352478,652.756042 
	C714.915344,654.585876 716.101074,658.344482 717.972778,661.656372 
z"/>
<path fill="#131218" opacity="1.000000" stroke="none" 
	d="
M619.091675,664.069946 
	C619.506531,665.201355 619.804749,665.950134 620.299805,667.193359 
	C610.877625,667.193359 601.810791,667.193359 592.196289,667.193359 
	C596.753906,656.595886 601.286682,646.056213 606.105896,634.850525 
	C610.579285,644.874451 614.777161,654.280945 619.091675,664.069946 
z"/>
<path fill="#131218" opacity="1.000000" stroke="none" 
	d="
M778.076172,684.478210 
	C775.286804,685.127319 772.860474,685.904480 770.405090,686.010742 
	C757.698120,686.560669 750.356140,679.081116 750.973145,666.415771 
	C751.504211,655.512817 759.436707,648.507080 770.581726,649.097961 
	C781.460144,649.674805 788.314087,657.301208 787.680481,668.306702 
	C787.287109,675.140076 784.988831,680.980957 778.076172,684.478210 
z"/>
</svg>